<?xml version="1.0" ?><svg xmlns="http://www.w3.org/2000/svg" id="Bluebell" viewBox="0 0 64 64"><defs><style>
      .cls-1 {
        stroke-width: 0px;
      }
    </style></defs><path class="cls-1" d="M54.83,36.45s-1.83-2.85-1.83-7.45c0-6.73,0-11.5-7-12.7v-2.3c0-1.94-1.38-3.56-3.22-3.92-1.83-6.74-4.91-8.13-7.19-8.08-5.76.12-12.05,9.75-15.6,23.48-1.25-4.46-3.92-11.28-9.08-15.27-.27-.21-.64-.27-.96-.15-.33.13-.57.41-.63.75-.03.16-2.83,15.47,8.82,23.79-1.06,7.02-1.39,14.38-.99,21.95,0,0,0,0,0,0-1.38,2.25-2.03,3.89-2.1,4.09-.2.52.06,1.09.58,1.29.52.2,1.09-.06,1.29-.58.05-.14,5.3-13.35,19.39-16.96-1.69,3.64-6.28,12.01-14.05,15.7-.5.24-.71.83-.47,1.33.17.36.53.57.9.57.14,0,.29-.03.43-.1,10.77-5.12,15.62-18.01,15.82-18.56.12-.34.06-.72-.17-.99-.23-.27-.59-.4-.95-.34-9.34,1.72-15.29,7.18-18.76,11.75,0,0,0,0,0,0h0c-.25-8.14.38-15.99,1.87-23.41h0c.03-.09.05-.19.05-.28,3.33-16.21,10.06-25.98,14.65-26.08h.09c2.11,0,3.87,2.21,5.02,6.21-1.59.52-2.74,2.02-2.74,3.79v2.3c-7,1.2-7,5.97-7,12.7,0,4.6-1.82,7.42-1.83,7.45-.21.3-.23.7-.05,1.02.17.33.51.53.88.53,3.39,0,5.9-1.98,7.37-3.57,1.53,3.11,3.82,5.19,3.96,5.32.19.17.43.25.67.25s.48-.08.67-.25c.14-.13,2.43-2.21,3.96-5.32,1.47,1.59,3.98,3.57,7.37,3.57.37,0,.7-.2.88-.53.17-.32.16-.71-.05-1.02ZM41.99,37.58c-1.29-1.38-4-4.75-4-8.58,0-7.68,2.65-11,4-11s4,3.32,4,11c0,3.83-2.71,7.2-4,8.58Z"/></svg>