<?xml version="1.0" ?><svg xmlns="http://www.w3.org/2000/svg" id="Picking_Flowers" data-name="Picking Flowers" viewBox="0 0 64 64"><defs><style>
      .cls-1 {
        stroke-width: 0px;
      }
    </style></defs><path class="cls-1" d="M56,54c-.36,0-.71.03-1.06.09-.44-3.43-3.39-6.09-6.94-6.09-1.36,0-2.65.38-3.75,1.09-1.04-1.87-3.04-3.09-5.25-3.09-1.24,0-2.44.39-3.45,1.09-1.13-1.31-2.79-2.09-4.55-2.09-.14,0-.28,0-.42.02-.7-2.33-1.08-4.65-1.11-6.96,0,0,0,0,.01,0,.45.05.88.07,1.29.07,6.17,0,8.13-4.71,8.15-4.76.2-.5-.04-1.08-.54-1.29-2.39-1.03-4.54-1.1-6.38-.22-.88.42-1.59,1.01-2.14,1.64,0,0,0,0,0,0,.49-2.71,1.44-5.39,2.87-8.03.26-.49.08-1.09-.4-1.36-.49-.26-1.09-.08-1.35.4-3.67,6.8-4.45,13.85-2.33,20.96,0,0,0,0,0,0-1.38.59-2.5,1.68-3.11,3.06-2.03-.94-4.61-.61-6.35.83-1.2-.89-2.65-1.38-4.17-1.38-3.5,0-6.4,2.57-6.92,6h-.08c-3.31,0-6,2.69-6,6,0,.55.45,1,1,1h58c.55,0,1-.45,1-1,0-3.31-2.69-6-6-6ZM4.13,59c.44-1.72,2.01-3,3.87-3,.29,0,.55.03.79.08.29.06.6-.06.84-.25.23-.19.37-.53.37-.83,0-2.76,2.24-5,5-5,1.33,0,2.57.51,3.5,1.45.2.19.47.31.75.29.28-.01.54-.14.72-.35.76-.88,1.86-1.39,3.03-1.39.91,0,1.76.3,2.47.86.28.21.64.27.97.15.33-.13.57-.41.63-.76.29-1.56,1.47-2.76,2.96-3.13.05-.01.11-.02.17-.04.26-.05.53-.08.8-.08,1.45,0,2.79.79,3.5,2.05.15.28.43.46.75.5.31.04.63-.07.85-.3.76-.81,1.79-1.25,2.9-1.25,1.81,0,3.4,1.22,3.86,2.96.1.34.37.61.71.71.34.08.71-.01.96-.26.92-.91,2.15-1.41,3.47-1.41,2.76,0,5,2.24,5,5,0,.09,0,.19-.01.28-.05.36.1.72.38.93.29.23.68.27,1.01.13.51-.23,1.06-.34,1.62-.34,1.86,0,3.43,1.28,3.87,3H4.13Z"/><path class="cls-1" d="M35,21c.32,0,.64-.16.83-.44.02-.03,1.46-2.14,3.55-2.5.91,1.53,2.57,2.45,4.29,2.43.89,1.55,2.51,2.51,4.33,2.51s3.44-.96,4.33-2.51h.02c1.77,0,3.41-.92,4.31-2.49.91-1.57.89-3.46,0-5,.9-1.54.92-3.43,0-5-.9-1.57-2.54-2.49-4.31-2.49h-.02c-.89-1.55-2.51-2.51-4.33-2.51s-3.44.96-4.33,2.51h-.02c-1.77,0-3.41.92-4.31,2.49-.91,1.57-.89,3.46,0,5-.57.97-.78,2.07-.64,3.15-2.75.65-4.46,3.17-4.54,3.3-.31.45-.18,1.07.27,1.38.17.11.37.17.56.17ZM48,9c2.21,0,4,1.79,4,4s-1.79,4-4,4-4-1.79-4-4,1.79-4,4-4Z"/><path class="cls-1" d="M31,20c.55,0,1-.45,1-1v-2c0-.55-.45-1-1-1s-1,.45-1,1v2c0,.55.45,1,1,1Z"/><path class="cls-1" d="M27,23h2c.55,0,1-.45,1-1s-.45-1-1-1h-2c-.55,0-1,.45-1,1s.45,1,1,1Z"/><path class="cls-1" d="M35,26v2c0,.55.45,1,1,1s1-.45,1-1v-2c0-.55-.45-1-1-1s-1,.45-1,1Z"/><path class="cls-1" d="M38,22c-.55,0-1,.45-1,1s.45,1,1,1h2c.55,0,1-.45,1-1s-.45-1-1-1h-2Z"/></svg>