<?xml version="1.0" ?><svg xmlns="http://www.w3.org/2000/svg" id="Renewal" viewBox="0 0 64 64"><defs><style>
      .cls-1 {
        stroke-width: 0px;
      }
    </style></defs><path class="cls-1" d="M21.3,50.07c-6.35-3.77-10.3-10.69-10.3-18.07,0-9.35,6.28-17.67,15.27-20.21,1.54-.43,3.13-.69,4.73-.76v1.97c0,.36.2.7.52.88.15.08.31.12.48.12.18,0,.37-.05.53-.15l8-5c.29-.18.47-.51.47-.85s-.18-.67-.47-.85l-8-5c-.31-.19-.7-.2-1.01-.03-.32.18-.52.52-.52.88v2.02c-1.78.06-3.54.31-5.23.71-12.23,2.89-20.77,13.69-20.77,26.27,0,8.78,4.29,17.04,11.48,22.09.17.12.37.18.57.18.31,0,.62-.15.82-.43.32-.45.21-1.07-.25-1.39-6.65-4.67-10.62-12.32-10.62-20.45,0-11.65,7.91-21.65,19.23-24.33,1.55-.37,3.15-.59,4.77-.65v2c-1.79.08-3.56.36-5.27.85-9.85,2.78-16.73,11.88-16.73,22.13,0,8.08,4.32,15.67,11.28,19.79.47.28,1.09.13,1.37-.35.28-.48.12-1.09-.35-1.37Z"/><path class="cls-1" d="M47.52,9.91c-.45-.32-1.07-.21-1.39.25-.32.45-.21,1.07.25,1.39,6.65,4.67,10.62,12.32,10.62,20.45,0,11.65-7.91,21.65-19.23,24.33-1.55.37-3.15.59-4.77.65v-2c1.79-.08,3.56-.36,5.27-.85,9.85-2.78,16.73-11.88,16.73-22.13,0-8.08-4.32-15.67-11.28-19.79-.47-.28-1.09-.13-1.37.35-.28.48-.12,1.09.35,1.37,6.35,3.77,10.3,10.69,10.3,18.07,0,9.35-6.28,17.67-15.27,20.21-1.54.43-3.13.68-4.73.76v-1.97c0-.36-.2-.7-.52-.88-.31-.17-.7-.16-1.01.03l-8,5c-.29.18-.47.51-.47.85s.18.67.47.85l8,5c.16.1.35.15.53.15.17,0,.33-.04.48-.12.32-.18.52-.52.52-.88v-2.03c1.78-.06,3.53-.29,5.23-.7,12.23-2.89,20.77-13.69,20.77-26.27,0-8.78-4.29-17.04-11.48-22.09Z"/><path class="cls-1" d="M39.95,18.4s-.73.96-2.26,2.13c-1.52,1.17-3.85,2.57-7.07,3.51-4.91,1.42-7.62,4.96-7.62,9.96,0,1.66.5,3.2,1.37,4.48.53-.28,1.1-.62,1.71-1.02,2.53-1.68,5.67-4.46,9.12-9.06.33-.44.96-.53,1.4-.2.44.33.53.96.2,1.4-3.45,4.6-6.63,7.49-9.27,9.31-.64.44-1.24.81-1.8,1.13,1.38,1.22,3.19,1.96,5.17,1.96s6.24-1.02,9.16-4.86c3.27-4.28,3.83-10.47,1.65-18.4-.1-.37-.4-.65-.77-.72-.38-.07-.76.08-.99.38Z"/><path class="cls-1" d="M24.37,38.48c-2.68,1.45-4.33,1.52-4.38,1.52-.55,0-.99.45-.99,1s.45,1,1,1c.17,0,2.34-.04,5.73-1.96-.52-.45-.98-.98-1.36-1.56Z"/></svg>